<svg xmlns="http://www.w3.org/2000/svg" width="24" height="23" fill="none"><path fill="#fff" fill-rule="evenodd" d="M19.697.536 23.432.12l-.415 3.734a15.3 15.3 0 0 1-4.388 9.13l-2.573 2.586a2.718 2.718 0 0 1 .34 3.43l-2.162 3.242a1.5 1.5 0 0 1-2.309.229l-1.497-1.498.424-2.97-5.303-5.303-2.97.424-1.498-1.498A1.5 1.5 0 0 1 1.31 9.32L4.55 7.157a2.718 2.718 0 0 1 3.43.34l2.587-2.574a15.3 15.3 0 0 1 9.13-4.387Zm1.53 3.12.167-1.498-1.498.167a13.5 13.5 0 0 0-8.055 3.871L9.267 8.77a1.81 1.81 0 0 1-2.558 0 .918.918 0 0 0-1.16-.115l-2.936 1.958.602.603 2.97-.424 6.576 6.576-.424 2.97.602.602 1.959-2.937a.918.918 0 0 0-.115-1.16 1.81 1.81 0 0 1 0-2.558l2.573-2.573a13.5 13.5 0 0 0 3.872-8.055Z" clip-rule="evenodd"/><path fill="#fff" d="m5.303 14.89-2.086 5.48 5.48-2.085-3.394-3.394Z"/></svg>