<svg width="86" height="81" viewBox="0 0 86 81" fill="none" xmlns="http://www.w3.org/2000/svg">
<path fill-rule="evenodd" clip-rule="evenodd" d="M7.84333 75L43 9.22695L78.1567 75H7.84333ZM39.4724 3.09867C40.9793 0.279468 45.0208 0.279468 46.5277 3.09867L85.0212 75.1144C86.4455 77.7789 84.5149 81 81.4936 81H4.50651C1.48521 81 -0.445406 77.7789 0.978835 75.1144L39.4724 3.09867ZM41.4332 31.0119C40.3286 31.0119 39.4332 31.9074 39.4332 33.0119V52.5767H45.8172V33.0119C45.8172 31.9074 44.9218 31.0119 43.8172 31.0119H41.4332ZM42.6252 68.7545C44.978 68.7545 46.8854 66.8216 46.8854 64.4373C46.8854 62.0529 44.978 60.12 42.6252 60.12C40.2724 60.12 38.365 62.0529 38.365 64.4373C38.365 66.8216 40.2724 68.7545 42.6252 68.7545Z" fill="#FFB026"/>
</svg>
