<svg width="26" height="33" viewBox="0 0 26 33" fill="none" xmlns="http://www.w3.org/2000/svg">
<path fill-rule="evenodd" clip-rule="evenodd" d="M25.121 7.98905C26.0599 6.69679 25.7734 4.88809 24.4811 3.94921L20.8119 1.28334C19.5196 0.344459 17.7109 0.630929 16.772 1.92319L2.65082 21.3594L0.366031 31.0128C0.278438 31.3829 0.34016 31.7726 0.537829 32.0975C0.952937 32.7798 1.84257 32.9964 2.52488 32.5813L10.9998 27.4252L25.121 7.98905ZM20.222 9.81142L22.7811 6.28905L19.1119 3.62319L16.5527 7.14555L20.222 9.81142ZM18.3607 12.3733L14.6914 9.70744L5.33165 22.59L3.97732 28.3122L9.0009 25.2559L18.3607 12.3733Z" fill="#212121"/>
</svg>
