<svg xmlns="http://www.w3.org/2000/svg" width="56" height="56" fill="none"><path fill="#212121" fill-rule="evenodd" d="M28.702 31.958a1.6 1.6 0 0 1 .362 1.792 1.71 1.71 0 0 1-.909.892c-.21.086-.433.128-.668.128-.233 0-.454-.044-.659-.13a1.737 1.737 0 0 1-.901-.89 1.58 1.58 0 0 1-.13-.636 1.598 1.598 0 0 1 .495-1.156 1.695 1.695 0 0 1 1.196-.481 1.758 1.758 0 0 1 1.214.481Zm3.224-8.595c.179.439.268.932.268 1.464 0 .568-.09 1.056-.27 1.45-.178.391-.404.731-.67 1.011a5.063 5.063 0 0 1-.862.72l-.84.552c-.253.17-.463.344-.629.522a.813.813 0 0 0-.23.581v.495h-2.497v-.479c0-.51.086-.943.254-1.281a3.23 3.23 0 0 1 .62-.862c.245-.237.514-.445.801-.614.279-.166.535-.34.768-.528a2.71 2.71 0 0 0 .573-.632c.15-.23.224-.532.224-.9 0-.196-.026-.387-.08-.566a1.107 1.107 0 0 0-.285-.464c-.137-.137-.336-.25-.59-.337-.257-.088-.598-.132-1.011-.132-.505 0-.95.059-1.317.176a3.714 3.714 0 0 0-.909.41l-.175.118v-2.135c.332-.242.7-.378 1.158-.508.456-.129 1.027-.194 1.695-.194.703 0 1.326.086 1.854.256.532.172.983.418 1.34.733.36.319.631.703.81 1.144ZM28 42c-7.732 0-14-6.268-14-14s6.268-14 14-14 14 6.268 14 14-6.268 14-14 14Zm0-2.667c6.26 0 11.333-5.074 11.333-11.333 0-6.26-5.074-11.333-11.333-11.333-6.26 0-11.333 5.074-11.333 11.333 0 6.26 5.074 11.333 11.333 11.333Z" clip-rule="evenodd"/></svg>