<svg xmlns="http://www.w3.org/2000/svg" width="20" height="20" fill="none"><path fill="#000" fill-rule="evenodd" d="M8.888.5a.5.5 0 0 1 .5-.5h1.222a.5.5 0 0 1 .5.5V10.611a.5.5 0 0 1-.5.5H.5a.5.5 0 0 1-.5-.5V9.39a.5.5 0 0 1 .5-.5h8.388V.5Zm5.657-.389a1.1 1.1 0 0 0-1.1 1.1v4.245a1.1 1.1 0 0 0 1.1 1.1h4.244a1.1 1.1 0 0 0 1.1-1.1V1.21a1.1 1.1 0 0 0-1.1-1.1h-4.244Zm.9 4.445V2.11h2.444v2.445h-2.444ZM1.21 13.445a1.1 1.1 0 0 0-1.1 1.1v4.244a1.1 1.1 0 0 0 1.1 1.1h4.245a1.1 1.1 0 0 0 1.1-1.1v-4.244a1.1 1.1 0 0 0-1.1-1.1H1.21Zm.9 4.444v-2.444h2.445v2.444H2.11Zm-2-16.678a1.1 1.1 0 0 1 1.1-1.1h4.245a1.1 1.1 0 0 1 1.1 1.1v4.245a1.1 1.1 0 0 1-1.1 1.1H1.21a1.1 1.1 0 0 1-1.1-1.1V1.21Zm2 .9v2.445h2.445V2.11H2.11Zm7.277 11.222a.5.5 0 0 0-.5.5V19.5a.5.5 0 0 0 .5.5h1.222a.5.5 0 0 0 .5-.5v-5.667a.5.5 0 0 0-.5-.5H9.388Zm4.445-4.444a.5.5 0 0 0-.5.5v5.666a.5.5 0 0 0 .5.5h1.222a.5.5 0 0 0 .5-.5v-3.944H19.5a.5.5 0 0 0 .5-.5V9.39a.5.5 0 0 0-.5-.5h-5.667Zm3.945 4.944a.5.5 0 0 1 .5-.5H19.5a.5.5 0 0 1 .5.5V19.5a.5.5 0 0 1-.5.5h-5.667a.5.5 0 0 1-.5-.5v-1.222a.5.5 0 0 1 .5-.5h3.945v-3.945Z" clip-rule="evenodd"/></svg>