<svg xmlns="http://www.w3.org/2000/svg" width="24" height="24" fill="none"><path fill="red" d="M12 1.5C6.201 1.5 1.5 6.201 1.5 12S6.201 22.5 12 22.5 22.5 17.799 22.5 12 17.799 1.5 12 1.5Zm0 2a8.5 8.5 0 1 1 0 17 8.5 8.5 0 0 1 0-17Zm1.092 13.117c.061-.14.091-.291.091-.45a1.113 1.113 0 0 0-.344-.815 1.235 1.235 0 0 0-.369-.244 1.163 1.163 0 0 0-.463-.092 1.17 1.17 0 0 0-.847.337 1.1 1.1 0 0 0-.343.814c0 .318.115.592.343.815.228.223.513.337.847.337.166 0 .322-.031.462-.092.14-.06.264-.142.37-.244.108-.104.193-.227.253-.366Zm-2.067-9.609v6.917h1.964V7.008h-1.964Z"/></svg>