<svg xmlns="http://www.w3.org/2000/svg" width="56" height="56" fill="none"><path fill="#212121" fill-rule="evenodd" d="m39.718 19.035 1.902 3.31a1.87 1.87 0 0 1-.487 2.414l-2.477 1.884.003 2.718 2.472 1.879a1.87 1.87 0 0 1 .487 2.419l-1.9 3.305a1.87 1.87 0 0 1-2.341.79l-2.923-1.225-2.292 1.308-.406 3.198a1.87 1.87 0 0 1-1.854 1.632h-3.804a1.87 1.87 0 0 1-1.853-1.632l-.41-3.23-2.253-1.293-2.96 1.241a1.865 1.865 0 0 1-2.34-.789l-1.902-3.31a1.87 1.87 0 0 1 .487-2.413l2.478-1.883-.004-2.718-2.472-1.88a1.87 1.87 0 0 1-.486-2.419l1.9-3.305a1.867 1.867 0 0 1 2.34-.79l2.922 1.225 2.294-1.308.405-3.198a1.871 1.871 0 0 1 1.854-1.632h3.805a1.872 1.872 0 0 1 1.851 1.631l.41 3.23 2.254 1.293 2.96-1.24a1.865 1.865 0 0 1 2.34.788Zm-3.723 11.651-.01-5.363 2.972-2.26-1.2-2.085-3.521 1.478-4.55-2.608L29.198 16h-2.396l-.484 3.819-4.593 2.621-3.483-1.462-1.199 2.086 2.962 2.253.01 5.36-2.972 2.26 1.2 2.085 3.521-1.478 4.55 2.608.488 3.848h2.396l.484-3.819 4.591-2.621 3.485 1.462 1.2-2.086-2.963-2.25Zm-10.958-7.12a5.333 5.333 0 1 1 5.926 8.869 5.333 5.333 0 0 1-5.926-8.87Zm1.482 6.651a2.667 2.667 0 1 0 2.963-4.434 2.667 2.667 0 0 0-2.963 4.434Z" clip-rule="evenodd"/></svg>