<svg xmlns="http://www.w3.org/2000/svg" width="56" height="56" fill="none"><path fill="#212121" d="M28 14c-7.732 0-14 6.268-14 14s6.268 14 14 14 14-6.268 14-14-6.268-14-14-14Zm0 2c6.627 0 12 5.373 12 12s-5.373 12-12 12-12-5.373-12-12 5.373-12 12-12Zm-1.178 4.418v10.8h2.354v-10.8h-2.354Zm2.582 14.577c.078-.178.118-.374.118-.58a1.434 1.434 0 0 0-.444-1.046 1.51 1.51 0 0 0-1.07-.434c-.43 0-.796.146-1.088.434-.296.288-.442.64-.442 1.046 0 .41.146.762.442 1.048.292.288.658.434 1.088.434a1.54 1.54 0 0 0 1.07-.432 1.48 1.48 0 0 0 .326-.47Z"/></svg>